{
	"asset":{
		"copyright":"Chris",
		"generator":"Khronos glTF Blender I/O v4.2.57",
		"version":"2.0"
	},
	"scene":0,
	"scenes":[
		{
			"name":"Scene",
			"nodes":[
				0,
				1
			]
		}
	],
	"nodes":[
		{
			"name":"WorldOrigin",
			"scale":[
				0.5,
				0.5,
				0.5
			]
		},
		{
			"mesh":0,
			"name":"Cube"
		}
	],
	"meshes":[
		{
			"name":"Cube.005",
			"primitives":[
				{
					"attributes":{
						"POSITION":0,
						"NORMAL":1,
						"TEXCOORD_0":2
					},
					"indices":3
				}
			]
		}
	],
	"accessors":[
		{
			"bufferView":0,
			"componentType":5126,
			"count":24576,
			"max":[
				0.8395062685012817,
				0.8395062685012817,
				0.8395062685012817
			],
			"min":[
				-0.8395062685012817,
				-0.8395062685012817,
				-0.8395062685012817
			],
			"type":"VEC3"
		},
		{
			"bufferView":1,
			"componentType":5126,
			"count":24576,
			"type":"VEC3"
		},
		{
			"bufferView":2,
			"componentType":5126,
			"count":24576,
			"type":"VEC2"
		},
		{
			"bufferView":3,
			"componentType":5123,
			"count":36864,
			"type":"SCALAR"
		}
	],
	"bufferViews":[
		{
			"buffer":0,
			"byteLength":294912,
			"byteOffset":0,
			"target":34962
		},
		{
			"buffer":0,
			"byteLength":294912,
			"byteOffset":294912,
			"target":34962
		},
		{
			"buffer":0,
			"byteLength":196608,
			"byteOffset":589824,
			"target":34962
		},
		{
			"buffer":0,
			"byteLength":73728,
			"byteOffset":786432,
			"target":34963
		}
	],
	"buffers":[
		{
			"byteLength":860160,
			"uri":"untitled.bin"
		}
	]
}
